<svg aria-hidden="true" xmlns="http://www.w3.org/2000/svg" xmlns:xlink="http://www.w3.org/1999/xlink"><symbol viewBox="0 0 30 30" id="arrow" xmlns="http://www.w3.org/2000/svg">
<path fill-rule="evenodd" clip-rule="evenodd" d="M5.24997 15C5.24997 14.4477 5.69768 14 6.24997 14H23.75C24.3023 14 24.75 14.4477 24.75 15C24.75 15.5523 24.3023 16 23.75 16H6.24997C5.69768 16 5.24997 15.5523 5.24997 15Z"/>
<path fill-rule="evenodd" clip-rule="evenodd" d="M14.2929 5.54283C14.6834 5.15231 15.3166 5.15231 15.7071 5.54283L24.4571 14.2928C24.8476 14.6834 24.8476 15.3165 24.4571 15.707L15.7071 24.457C15.3166 24.8476 14.6834 24.8476 14.2929 24.457C13.9024 24.0665 13.9024 23.4334 14.2929 23.0428L22.3358 14.9999L14.2929 6.95705C13.9024 6.56652 13.9024 5.93336 14.2929 5.54283Z"/>
</symbol><symbol viewBox="0 0 35 35" id="codepen" xmlns="http://www.w3.org/2000/svg">
<path fill-rule="evenodd" clip-rule="evenodd" d="M16.6825 1.65908C17.1796 1.33597 17.8204 1.33597 18.3175 1.65908L32.9008 11.1382C33.3265 11.4149 33.5833 11.8882 33.5833 12.3959V22.6042C33.5833 23.112 33.3265 23.5852 32.9008 23.8619L18.3175 33.3411C17.8204 33.6642 17.1796 33.6642 16.6825 33.3411L2.09919 23.8619C1.6735 23.5852 1.41667 23.112 1.41667 22.6042V12.3959C1.41667 11.8882 1.6735 11.4149 2.09919 11.1382L16.6825 1.65908ZM4.41667 13.2099V21.7902L17.5 30.2944L30.5833 21.7902V13.2099L17.5 4.70578L4.41667 13.2099Z"/>
<path fill-rule="evenodd" clip-rule="evenodd" d="M17.5 21.1042C18.3284 21.1042 19 21.7758 19 22.6042V32.0834C19 32.9118 18.3284 33.5834 17.5 33.5834C16.6716 33.5834 16 32.9118 16 32.0834V22.6042C16 21.7758 16.6716 21.1042 17.5 21.1042Z"/>
<path fill-rule="evenodd" clip-rule="evenodd" d="M1.68782 11.5357C2.16289 10.857 3.09819 10.692 3.77686 11.167L17.5 20.7732L31.2231 11.167C31.9018 10.692 32.8371 10.857 33.3122 11.5357C33.7873 12.2144 33.6222 13.1497 32.9435 13.6247L18.3602 23.8331C17.8437 24.1946 17.1563 24.1946 16.6398 23.8331L2.05647 13.6247C1.3778 13.1497 1.21275 12.2144 1.68782 11.5357Z"/>
<path fill-rule="evenodd" clip-rule="evenodd" d="M16.6398 11.1669C17.1563 10.8054 17.8437 10.8054 18.3602 11.1669L32.9435 21.3752C33.6222 21.8503 33.7873 22.7856 33.3122 23.4643C32.8371 24.143 31.9018 24.308 31.2231 23.8329L17.5 14.2267L3.77686 23.8329C3.09819 24.308 2.16289 24.143 1.68782 23.4643C1.21275 22.7856 1.3778 21.8503 2.05647 21.3752L16.6398 11.1669Z"/>
<path fill-rule="evenodd" clip-rule="evenodd" d="M17.5 1.41675C18.3284 1.41675 19 2.08832 19 2.91675V12.3959C19 13.2243 18.3284 13.8959 17.5 13.8959C16.6716 13.8959 16 13.2243 16 12.3959V2.91675C16 2.08832 16.6716 1.41675 17.5 1.41675Z"/>
</symbol><symbol viewBox="0 0 35 35" id="drible" xmlns="http://www.w3.org/2000/svg">
<path fill-rule="evenodd" clip-rule="evenodd" d="M17.5 4.41675C10.2743 4.41675 4.41667 10.2744 4.41667 17.5001C4.41667 24.7258 10.2743 30.5834 17.5 30.5834C24.7257 30.5834 30.5833 24.7258 30.5833 17.5001C30.5833 10.2744 24.7257 4.41675 17.5 4.41675ZM1.41667 17.5001C1.41667 8.6175 8.61743 1.41675 17.5 1.41675C26.3826 1.41675 33.5833 8.6175 33.5833 17.5001C33.5833 26.3827 26.3826 33.5834 17.5 33.5834C8.61743 33.5834 1.41667 26.3827 1.41667 17.5001Z"/>
<path fill-rule="evenodd" clip-rule="evenodd" d="M11.6031 2.79578C12.2739 2.30965 13.2118 2.45935 13.6979 3.13014C16.0167 6.32981 17.8394 9.05748 19.3602 11.8242C22.2877 10.5948 24.6978 8.85703 26.7579 6.44797C27.2963 5.81837 28.2432 5.74445 28.8728 6.28287C29.5024 6.82129 29.5763 7.76815 29.0379 8.39775C26.6728 11.1634 23.9294 13.1262 20.7305 14.5022C20.8189 14.6887 20.9062 14.8761 20.9926 15.0646C21.2065 15.531 21.4141 16.0028 21.6162 16.4822C24.7069 16.0424 28.2908 16.262 32.1039 17.2752C32.9046 17.488 33.3812 18.3095 33.1684 19.1101C32.9557 19.9108 32.1342 20.3874 31.3335 20.1746C28.1423 19.3267 25.2212 19.1132 22.7358 19.3675C23.7666 22.2534 24.6845 25.5055 25.6516 29.499C25.8466 30.3041 25.3519 31.1149 24.5468 31.3099C23.7416 31.5049 22.9309 31.0102 22.7359 30.2051C21.7321 26.0603 20.7988 22.7972 19.7564 19.9502C19.5611 20.0094 19.3702 20.0721 19.184 20.1382C15.7991 21.3455 12.4836 23.9272 9.05876 28.8037C8.58263 29.4816 7.64708 29.6452 6.96915 29.1691C6.29121 28.693 6.12761 27.7575 6.60373 27.0795C10.266 21.8649 14.0377 18.7883 18.1774 17.3121L18.1795 17.3114C18.3314 17.2574 18.4853 17.2055 18.6411 17.1555C18.518 16.8726 18.393 16.5926 18.2657 16.315C18.1457 16.0535 18.0237 15.7938 17.8994 15.5355C13.7634 16.8021 8.94645 17.319 3.31713 17.4537C2.48894 17.4735 1.80149 16.8182 1.78167 15.99C1.76185 15.1618 2.41717 14.4744 3.24536 14.4545C8.51704 14.3284 12.8531 13.8602 16.4844 12.8256C15.0966 10.3598 13.4219 7.86166 11.2687 4.89058C10.7826 4.21979 10.9323 3.28191 11.6031 2.79578Z"/>
</symbol><symbol viewBox="0 0 35 35" id="fb" xmlns="http://www.w3.org/2000/svg">
<path fill-rule="evenodd" clip-rule="evenodd" d="M15.6584 3.99177C17.3071 2.34301 19.5433 1.41675 21.875 1.41675H26.25C27.0784 1.41675 27.75 2.08832 27.75 2.91675V8.75008C27.75 9.57851 27.0784 10.2501 26.25 10.2501H21.9167V13.0834H26.25C26.7119 13.0834 27.148 13.2962 27.4323 13.6603C27.7166 14.0244 27.8172 14.4991 27.7052 14.9472L26.2469 20.7806C26.0799 21.4483 25.48 21.9167 24.7917 21.9167H21.9167V32.0834C21.9167 32.9118 21.2451 33.5834 20.4167 33.5834H14.5833C13.7549 33.5834 13.0833 32.9118 13.0833 32.0834V21.9167H10.2083C9.3799 21.9167 8.70833 21.2452 8.70833 20.4167V14.5834C8.70833 13.755 9.3799 13.0834 10.2083 13.0834H13.0833V10.2084C13.0833 7.87672 14.0096 5.64052 15.6584 3.99177ZM21.875 4.41675C20.339 4.41675 18.8658 5.02694 17.7797 6.11309C16.6935 7.19924 16.0833 8.67237 16.0833 10.2084V14.5834C16.0833 15.4118 15.4118 16.0834 14.5833 16.0834H11.7083V18.9167H14.5833C15.4118 18.9167 16.0833 19.5883 16.0833 20.4167V30.5834H18.9167V20.4167C18.9167 19.5883 19.5882 18.9167 20.4167 18.9167H23.6205L24.3288 16.0834H20.4167C19.5882 16.0834 18.9167 15.4118 18.9167 14.5834V10.2084C18.9167 9.42381 19.2283 8.67135 19.7831 8.11656C20.3379 7.56176 21.0904 7.25008 21.875 7.25008H24.75V4.41675H21.875Z"/>
</symbol><symbol viewBox="0 0 35 35" id="gmail" xmlns="http://www.w3.org/2000/svg">
<path fill-rule="evenodd" clip-rule="evenodd" d="M17.5 13.1667C15.1068 13.1667 13.1667 15.1068 13.1667 17.5001C13.1667 19.8933 15.1068 21.8334 17.5 21.8334C19.8932 21.8334 21.8333 19.8933 21.8333 17.5001C21.8333 15.1068 19.8932 13.1667 17.5 13.1667ZM10.1667 17.5001C10.1667 13.45 13.4499 10.1667 17.5 10.1667C21.5501 10.1667 24.8333 13.45 24.8333 17.5001C24.8333 21.5502 21.5501 24.8334 17.5 24.8334C13.4499 24.8334 10.1667 21.5502 10.1667 17.5001Z"/>
<path fill-rule="evenodd" clip-rule="evenodd" d="M10.6281 2.95946C13.9101 1.40851 17.6202 1.01339 21.1552 1.83834C24.6901 2.6633 27.8421 4.65982 30.0985 7.50327C32.3549 10.3467 33.5831 13.8699 33.5833 17.4998L33.5833 17.4999V18.9582C33.5833 20.5164 32.9644 22.0107 31.8626 23.1125C30.7608 24.2143 29.2665 24.8332 27.7083 24.8332C26.1502 24.8332 24.6559 24.2143 23.5541 23.1125C22.4523 22.0107 21.8333 20.5164 21.8333 18.9582V11.6666C21.8333 10.8381 22.5049 10.1666 23.3333 10.1666C24.1618 10.1666 24.8333 10.8381 24.8333 11.6666V18.9582C24.8333 19.7207 25.1362 20.452 25.6754 20.9912C26.2146 21.5303 26.9458 21.8332 27.7083 21.8332C28.4708 21.8332 29.2021 21.5303 29.7413 20.9912C30.2804 20.452 30.5833 19.7207 30.5833 18.9582V17.5C30.5833 17.5 30.5833 17.4999 30.5833 17.4999C30.5831 14.5471 29.584 11.6811 27.7485 9.3681C25.913 7.05504 23.349 5.43092 20.4734 4.75984C17.5978 4.08876 14.5797 4.41018 11.9099 5.67184C9.24018 6.9335 7.07572 9.0612 5.76851 11.709C4.4613 14.3567 4.08823 17.3688 4.70995 20.2555C5.33167 23.1422 6.91163 25.7337 9.19291 27.6085C11.4742 29.4834 14.3226 30.5315 17.2751 30.5822C20.2275 30.633 23.1103 29.6835 25.4547 27.8882C26.1124 27.3845 27.0539 27.5094 27.5576 28.1671C28.0613 28.8248 27.9364 29.7663 27.2787 30.27C24.3967 32.477 20.8529 33.6442 17.2235 33.5818C13.5941 33.5194 10.0925 32.231 7.28809 29.9262C4.48372 27.6214 2.54148 24.4357 1.7772 20.8871C1.01292 17.3386 1.47154 13.6358 3.07849 10.3809C4.68544 7.12599 7.34621 4.51042 10.6281 2.95946Z"/>
</symbol><symbol viewBox="0 0 35 35" id="inst" xmlns="http://www.w3.org/2000/svg">
<path fill-rule="evenodd" clip-rule="evenodd" d="M10.2083 4.41675C7.00969 4.41675 4.41667 7.00977 4.41667 10.2084V24.7917C4.41667 27.9904 7.00969 30.5834 10.2083 30.5834H24.7917C27.9903 30.5834 30.5833 27.9904 30.5833 24.7917V10.2084C30.5833 7.00977 27.9903 4.41675 24.7917 4.41675H10.2083ZM1.41667 10.2084C1.41667 5.35291 5.35283 1.41675 10.2083 1.41675H24.7917C29.6472 1.41675 33.5833 5.35291 33.5833 10.2084V24.7917C33.5833 29.6472 29.6472 33.5834 24.7917 33.5834H10.2083C5.35283 33.5834 1.41667 29.6472 1.41667 24.7917V10.2084Z"/>
<path fill-rule="evenodd" clip-rule="evenodd" d="M18.1987 13.1504C17.2971 13.0167 16.3763 13.1707 15.5673 13.5905C14.7583 14.0103 14.1022 14.6745 13.6924 15.4886C13.2826 16.3028 13.14 17.2254 13.2848 18.1253C13.4296 19.0252 13.8545 19.8565 14.499 20.501C15.1435 21.1455 15.9748 21.5704 16.8747 21.7152C17.7746 21.86 18.6972 21.7173 19.5113 21.3075C20.3255 20.8978 20.9897 20.2417 21.4095 19.4327C21.8293 18.6236 21.9833 17.7028 21.8496 16.8012C21.7132 15.8816 21.2847 15.0301 20.6272 14.3727C19.9698 13.7153 19.1184 13.2868 18.1987 13.1504ZM14.1856 10.9276C15.5547 10.2172 17.113 9.95659 18.6388 10.1828C20.1951 10.4136 21.636 11.1389 22.7486 12.2514C23.8611 13.364 24.5863 14.8048 24.8171 16.3612C25.0434 17.887 24.7828 19.4452 24.0723 20.8144C23.3619 22.1835 22.2379 23.2938 20.8601 23.9872C19.4823 24.6807 17.9209 24.9221 16.3981 24.6771C14.8752 24.432 13.4683 23.713 12.3777 22.6223C11.287 21.5316 10.568 20.1248 10.3229 18.6019C10.0779 17.079 10.3192 15.5176 11.0127 14.1399C11.7062 12.7621 12.8165 11.638 14.1856 10.9276Z"/>
<path fill-rule="evenodd" clip-rule="evenodd" d="M24.0208 9.47925C24.0208 8.65082 24.6924 7.97925 25.5208 7.97925H25.5354C26.3639 7.97925 27.0354 8.65082 27.0354 9.47925C27.0354 10.3077 26.3639 10.9792 25.5354 10.9792H25.5208C24.6924 10.9792 24.0208 10.3077 24.0208 9.47925Z"/>
</symbol><symbol viewBox="0 0 35 35" id="twiter" xmlns="http://www.w3.org/2000/svg">
<g clip-path="url(#gclip0_1_214)">
<path fill-rule="evenodd" clip-rule="evenodd" d="M21.1681 3.38845C22.7056 2.80163 24.3862 2.70115 25.9827 3.1006C27.244 3.41621 28.4048 4.03188 29.3691 4.88889C30.5415 4.45566 31.6537 3.87115 32.6771 3.14927L33.5417 4.37502L34.9991 4.72994C34.4993 6.78192 33.4991 8.67374 32.0928 10.2387C32.1135 10.4693 32.1242 10.7008 32.125 10.9326L32.125 10.9375C32.125 19.8478 27.8343 26.3886 21.6683 29.6705C15.5389 32.9329 7.70714 32.8958 0.729866 29.0196C0.122649 28.6822 -0.173519 27.9721 0.0140535 27.3033C0.201626 26.6345 0.823865 26.1819 1.51795 26.2095C3.94517 26.3061 6.34819 25.8296 8.53764 24.8342C6.37492 23.4871 4.81278 21.8918 3.723 20.1711C2.25466 17.8527 1.70068 15.3971 1.6005 13.1931C1.50062 10.9957 1.84966 9.01774 2.2164 7.5997C2.40067 6.8872 2.59188 6.30659 2.73934 5.89871C2.81316 5.69453 2.87627 5.53293 2.92244 5.41897C2.94553 5.36197 2.96441 5.31682 2.9783 5.28416L2.99531 5.24457L3.00084 5.23194L3.00282 5.22743L3.00362 5.22563C3.00396 5.22486 3.00428 5.22414 4.375 5.83335L5.60253 4.97128C6.93375 6.86686 8.7131 8.40379 10.7821 9.44519C12.4144 10.2668 14.1869 10.7598 15.9994 10.9019C15.9978 9.29093 16.4805 7.71581 17.3862 6.3817C18.3105 5.02013 19.6307 3.97528 21.1681 3.38845ZM4.9889 8.89706C4.72959 10.0513 4.52667 11.5006 4.59741 13.0569C4.67952 14.8634 5.12814 16.7828 6.25746 18.5659C7.38074 20.3395 9.23448 22.0692 12.2759 23.421C12.7736 23.6422 13.1123 24.1158 13.1607 24.6583C13.2092 25.2008 12.9597 25.7269 12.5091 26.0328C10.9282 27.1059 9.20114 27.9202 7.39247 28.4573C11.9566 29.5832 16.5201 29.0122 20.2588 27.0222C25.3944 24.2888 29.1243 18.7991 29.125 10.9398C29.1238 10.6273 29.0937 10.3156 29.035 10.0087C28.941 9.51693 29.0986 9.01066 29.4551 8.65909C29.7441 8.3741 30.014 8.07235 30.2637 7.75585C29.977 7.85893 29.6873 7.95455 29.395 8.04256C28.83 8.21268 28.2178 8.03581 27.8307 7.59062C27.154 6.8126 26.2548 6.26116 25.2545 6.01088C24.2542 5.7606 23.2012 5.82356 22.2379 6.19124C21.2746 6.55891 20.4474 7.21357 19.8683 8.06667C19.2892 8.91977 18.986 9.93015 18.9999 10.9612L19 10.9813V12.4396C19 13.2529 18.3519 13.918 17.5389 13.9391C14.7288 14.012 11.9443 13.3887 9.43333 12.1249C7.78146 11.2934 6.28173 10.2017 4.9889 8.89706Z"/>
</g>
<defs>
<clipPath id="gclip0_1_214">
<rect width="35" height="35"/>
</clipPath>
</defs>
</symbol></svg>